<svg version="1.1" xmlns="http://www.w3.org/2000/svg" viewBox="0 0 1283.2000732421875 385.59999084472656" width="1283.2000732421875" height="385.59999084472656">
  <!-- svg-source:excalidraw -->
  
  <defs>
    <style>
      @font-face {
        font-family: "Virgil";
        src: url("https://excalidraw.com/Virgil.woff2");
      }
      @font-face {
        font-family: "Cascadia";
        src: url("https://excalidraw.com/Cascadia.woff2");
      }
    </style>
  </defs>
  <rect x="0" y="0" width="1283.2000732421875" height="385.59999084472656" fill="#ffffff"></rect><g stroke-linecap="round" transform="translate(38.800018310546875 62.800048828125) rotate(0 62 61.59998321533203)"><path d="M89.57 6.15 C98.22 9.41, 105.99 18.13, 111.72 26.22 C117.45 34.3, 122.55 44.77, 123.96 54.63 C125.37 64.5, 124.06 76.42, 120.18 85.43 C116.3 94.43, 108.44 102.48, 100.66 108.67 C92.89 114.87, 83.07 120.83, 73.53 122.6 C63.98 124.37, 52.74 122.44, 43.39 119.31 C34.05 116.17, 24.46 111, 17.46 103.79 C10.45 96.59, 4.04 85.64, 1.37 76.09 C-1.3 66.54, -1.24 55.81, 1.44 46.51 C4.13 37.21, 10.63 27.38, 17.48 20.29 C24.33 13.2, 33.19 7.35, 42.54 3.99 C51.89 0.63, 64.29 -1.29, 73.57 0.12 C82.85 1.53, 92.87 9.22, 98.21 12.45 C103.55 15.67, 106.16 18.86, 105.62 19.48 M68.49 0.65 C77.81 0.79, 90.79 6.74, 98.97 12.28 C107.15 17.82, 113.31 25.06, 117.58 33.92 C121.86 42.77, 124.9 55.53, 124.6 65.42 C124.31 75.31, 121.21 84.84, 115.81 93.26 C110.41 101.68, 101.04 110.76, 92.21 115.95 C83.38 121.15, 72.91 124.6, 62.84 124.45 C52.78 124.29, 40.81 119.86, 31.82 115.01 C22.83 110.15, 14.35 103.54, 8.89 95.33 C3.42 87.11, -0.24 75.69, -0.99 65.7 C-1.74 55.71, 0.19 44.43, 4.38 35.41 C8.58 26.38, 16.2 17.47, 24.19 11.57 C32.17 5.67, 44.5 1.93, 52.31 -0.02 C60.13 -1.96, 67.92 -0.16, 71.06 -0.11 C74.21 -0.06, 71.3 -1.04, 71.16 0.26" stroke="#000000" stroke-width="1" fill="none"></path></g><g transform="translate(53.800018310546875 111.90003204345703) rotate(0 47 12.5)"><text x="47" y="18" font-family="Virgil, Segoe UI Emoji" font-size="20px" fill="#000000" text-anchor="middle" style="white-space: pre;" direction="ltr">Controller</text></g><g stroke-linecap="round" transform="translate(30.800018310546875 190.8000030517578) rotate(0 74.80000305175781 24.399993896484375)"><path d="M1.29 -1.59 C45.78 2.11, 92.97 -0.58, 147.83 1.6 M-0.29 0.43 C57.49 -0.32, 115.8 0.15, 149.17 -0.82 M151.4 0.88 C150.77 10.32, 148.38 21.32, 147.88 47.25 M149.89 0.29 C149.64 16.19, 150.01 33.53, 148.73 47.94 M151.14 47.3 C116.22 47.81, 82.27 48.11, -1.24 48.8 M150.35 48.79 C107.79 50.21, 65.37 49.33, -0.59 49.08 M1.13 49.28 C1.05 32.04, -1.62 16.66, -1.06 0.61 M-0.42 47.98 C0.39 37.68, -0.21 25.8, 0.19 -0.92" stroke="#000000" stroke-width="1" fill="none"></path></g><g transform="translate(45.60002136230469 202.6999969482422) rotate(0 60 12.5)"><text x="60" y="18" font-family="Virgil, Segoe UI Emoji" font-size="20px" fill="#000000" text-anchor="middle" style="white-space: pre;" direction="ltr">CommandBus</text></g><g stroke-linecap="round" transform="translate(10 38.000030517578125) rotate(0 93.60000610351562 109.19998931884766)"><path d="M-0.15 0.34 C76.54 2.65, 150.06 2.57, 186.22 1.38 M-0.03 0.29 C73.86 0, 146.97 0.6, 186.53 -0.81 M187.52 -0.36 C189.68 44.55, 189.41 87.84, 186.81 217.89 M187.03 -0.14 C185.46 79.47, 185.27 158.21, 187.13 218.39 M186.63 218.34 C135.59 218.59, 82.98 215.88, -2 218.85 M188.15 217.94 C126.47 216.43, 65.49 217.48, -0.67 218.77 M1.36 219.44 C0.34 167.48, 1.7 120.86, -1.28 0.36 M-0.28 218.41 C0.51 151.57, 0.08 83.54, 0.56 0.21" stroke="#000000" stroke-width="1" fill="none"></path></g><g stroke-linecap="round"><g transform="translate(206.79998779296875 156.74499814794626) rotate(0 171.40435807268298 -3.0709951754060967)"><path d="M1.09 0.26 C58.21 -0.73, 285.42 -5.29, 342.6 -6.4 M0.2 -0.66 C57.14 -1.51, 284.15 -4.65, 341.46 -5.49" stroke="#000000" stroke-width="1" fill="none"></path></g><g transform="translate(206.79998779296875 156.74499814794626) rotate(0 171.40435807268298 -3.0709951754060967)"><path d="M313.84 4.55 C319.64 3.81, 327.87 -3.12, 342.88 -5.61 M313.48 4.51 C321.02 3.08, 327.63 -0.58, 341.97 -5.38" stroke="#000000" stroke-width="1" fill="none"></path></g><g transform="translate(206.79998779296875 156.74499814794626) rotate(0 171.40435807268298 -3.0709951754060967)"><path d="M313.55 -15.97 C319.36 -10.73, 327.67 -11.68, 342.88 -5.61 M313.19 -16.01 C320.71 -12.12, 327.39 -10.45, 341.97 -5.38" stroke="#000000" stroke-width="1" fill="none"></path></g></g><g stroke-linecap="round" transform="translate(278.79998779296875 81.20002746582031) rotate(0 87.19999694824219 24.399993896484375)"><path d="M0.56 0.83 C67.08 -0.89, 132.99 0.3, 176.27 0.09 M0.94 0.25 C52.24 -0.99, 104.41 -0.91, 173.83 -0.25 M174.57 -1.83 C175.49 17.07, 172.56 33.25, 172.73 49.81 M174.28 0.73 C174.99 15.1, 174.63 31.3, 175.16 48.04 M173.75 50.69 C114.88 46.38, 58.39 47.57, -0.28 50.28 M175.34 48.89 C131.48 49.94, 89.01 48.96, -0.41 49.29 M-1.5 47.99 C0.54 32.92, -1.5 19.21, -1.5 0.39 M0.33 48.15 C-1.05 30.07, 0.37 11.64, 0.74 0.12" stroke="#000000" stroke-width="1" fill="none"></path></g><g transform="translate(325.49998474121094 93.10002136230469) rotate(0 40.5 12.5)"><text x="40.5" y="18" font-family="Virgil, Segoe UI Emoji" font-size="20px" fill="#000000" text-anchor="middle" style="white-space: pre;" direction="ltr">command</text></g><g stroke-linecap="round"><g transform="translate(759.1999206542969 129.91816178650225) rotate(0 125.26740581514258 -0.17979476556891427)"><path d="M-0.3 0.74 C41.44 0.91, 208.91 0.62, 250.84 0.64 M1.74 0.09 C43.29 -0.07, 208.44 -0.97, 249.94 -1.15" stroke="#000000" stroke-width="1" fill="none"></path></g><g transform="translate(759.1999206542969 129.91816178650225) rotate(0 125.26740581514258 -0.17979476556891427)"><path d="M223.04 9.41 C232.23 6.71, 241.99 2.67, 248.24 -3.08 M221.53 8.78 C230.59 6.16, 240.08 2.28, 249.64 -0.97" stroke="#000000" stroke-width="1" fill="none"></path></g><g transform="translate(759.1999206542969 129.91816178650225) rotate(0 125.26740581514258 -0.17979476556891427)"><path d="M222.94 -11.11 C232.1 -6.98, 241.9 -4.2, 248.24 -3.08 M221.43 -11.74 C230.46 -7.9, 239.99 -5.33, 249.64 -0.97" stroke="#000000" stroke-width="1" fill="none"></path></g></g><g stroke-linecap="round" transform="translate(801.5621338832457 67.99995422363281) rotate(0 77.0223956484856 21.552133595040658)"><path d="M0.16 1.04 C42.54 0.48, 83.64 -2.65, 152.12 0.29 M-0.47 -0.09 C42.02 0.96, 83.19 0.11, 154.23 -0.61 M154.14 -0.95 C152.61 8.99, 154.36 18.63, 154.9 41.61 M153.35 0.84 C153.75 9.63, 153.35 19.94, 154.62 43.52 M154.07 44.38 C102.34 42.97, 51.01 41.14, 1.8 41.88 M153.2 42.29 C114.24 41.77, 73.62 42.72, 0.27 42.28 M-0.61 44.44 C-0.39 28.85, -0.58 11.36, -0.52 -0.63 M0.02 43.64 C-0.6 33.37, -0.05 22.79, -0.73 0.31" stroke="#000000" stroke-width="1" fill="none"></path></g><g transform="translate(842.8115119522106 78.51103301017986) rotate(0 35.77301757952125 11.04105480849421)"><text x="35.77301757952126" y="16.08210961698842" font-family="Virgil, Segoe UI Emoji" font-size="17.665687693590755px" fill="#000000" text-anchor="middle" style="white-space: pre;" direction="ltr">command</text></g><g stroke-linecap="round" transform="translate(575.60009765625 63.60002136230469) rotate(0 78.39999389648438 67.60000610351562)"><path d="M89.45 0.46 C100.37 0.89, 112.94 6.73, 122.33 12.28 C131.73 17.83, 140.15 25.32, 145.81 33.77 C151.47 42.23, 155.51 52.92, 156.31 63.02 C157.1 73.13, 154.97 85.22, 150.57 94.41 C146.17 103.59, 138.73 111.57, 129.91 118.14 C121.08 124.72, 108.95 131.23, 97.6 133.85 C86.24 136.46, 73.08 136.15, 61.78 133.85 C50.48 131.56, 39.02 126.34, 29.79 120.09 C20.55 113.84, 11.32 105.37, 6.36 96.34 C1.39 87.31, -0.58 75.82, -0.02 65.9 C0.54 55.98, 4.28 45.67, 9.71 36.82 C15.14 27.97, 23.24 18.9, 32.57 12.79 C41.9 6.67, 55.7 2.05, 65.71 0.12 C75.71 -1.82, 87.38 0.55, 92.6 1.18 C97.83 1.81, 97.41 2.73, 97.05 3.88 M103.04 4.54 C113.69 6.68, 124.06 12.76, 132.14 19.38 C140.23 26.01, 147.26 34.96, 151.54 44.28 C155.81 53.61, 158.87 65.12, 157.78 75.35 C156.69 85.58, 151.73 97.18, 145.01 105.65 C138.29 114.12, 127.73 121.15, 117.45 126.15 C107.17 131.14, 94.89 135.11, 83.32 135.62 C71.75 136.12, 58.74 132.89, 48.04 129.16 C37.35 125.44, 26.81 120.76, 19.17 113.26 C11.53 105.77, 4.95 94.1, 2.21 84.2 C-0.53 74.3, 0.27 63.36, 2.74 53.88 C5.21 44.4, 10.09 35.15, 17.04 27.32 C23.99 19.49, 34.06 11.49, 44.43 6.9 C54.81 2.31, 69.88 0.34, 79.27 -0.2 C88.66 -0.75, 97.32 2.97, 100.78 3.63 C104.24 4.29, 100.05 2.95, 100.05 3.76" stroke="#000000" stroke-width="1" fill="none"></path></g><g transform="translate(594.0000915527344 118.70002746582031) rotate(0 60 12.5)"><text x="60" y="18" font-family="Virgil, Segoe UI Emoji" font-size="20px" fill="#000000" text-anchor="middle" style="white-space: pre;" direction="ltr">CommandBus</text></g><g stroke-linecap="round" transform="translate(587.6000366210938 207.59999084472656) rotate(0 70.39999389648438 26.400009155273438)"><path d="M0.71 1.95 C44 -0.56, 89.55 1.58, 141.02 -1.26 M0.7 0.03 C45.52 -0.33, 91.56 -0.33, 140.69 -0.82 M141.38 0.7 C140.8 13.38, 143.27 25.34, 142.54 51.57 M141.32 -0.9 C142.04 14.65, 141.84 28.6, 140.05 53.29 M141.84 52.73 C96.69 54.13, 49 55.36, -1.22 53.16 M140.73 53.45 C86.22 50.57, 33.84 50.59, -0.96 53.78 M0.32 51.3 C-1.01 42.85, -0.53 30.58, 0.67 -0.97 M0.48 52.43 C-0.14 41.09, -0.51 27.09, -0.11 0.65" stroke="#000000" stroke-width="1" fill="none"></path></g><g transform="translate(642.0000305175781 221.5) rotate(0 16 12.5)"><text x="16" y="18" font-family="Virgil, Segoe UI Emoji" font-size="20px" fill="#000000" text-anchor="middle" style="white-space: pre;" direction="ltr">bus</text></g><g stroke-linecap="round" transform="translate(561.2000732421875 36.4000244140625) rotate(0 94.79998779296875 125.99999237060547)"><path d="M-0.18 0.57 C43.32 -2.34, 84.06 -1.61, 191.13 0.96 M-0.57 -0.46 C49.78 -1.09, 100.08 -1.84, 189.77 -0.32 M188.95 0.27 C189.1 54.02, 188.13 107.79, 189.04 251.96 M189.17 0.65 C189.67 71.89, 188.93 144.96, 189.57 251.73 M190.85 250.77 C143.65 253.58, 99.35 253.97, -0.33 251.49 M189.36 251.3 C116.72 251.23, 42.97 251.33, -0.01 251.59 M1.45 252.73 C1.05 184.73, 0.89 119.14, -0.78 -0.24 M-0.27 252.26 C-1.4 167.42, -0.21 83.32, -0.06 0.41" stroke="#000000" stroke-width="1" fill="none"></path></g><g stroke-linecap="round" transform="translate(1050 51.60002136230469) rotate(0 98.79998779296875 76.39999389648438)"><path d="M131.45 4.92 C143.97 7.41, 157.61 15.12, 167.32 22.16 C177.02 29.21, 184.52 37.84, 189.67 47.18 C194.83 56.52, 198.46 67.93, 198.25 78.21 C198.05 88.49, 194.28 99.34, 188.43 108.86 C182.59 118.38, 173.5 128.54, 163.17 135.32 C152.85 142.09, 139.61 146.71, 126.48 149.5 C113.35 152.3, 97.87 153.47, 84.4 152.08 C70.94 150.69, 57.04 146.74, 45.69 141.17 C34.35 135.59, 23.59 127.15, 16.32 118.62 C9.05 110.1, 4.23 100.09, 2.08 90.01 C-0.06 79.93, 0.32 68.4, 3.44 58.16 C6.57 47.91, 12.67 36.8, 20.84 28.53 C29.01 20.25, 40.51 13.13, 52.47 8.53 C64.43 3.92, 78.77 1.27, 92.58 0.9 C106.4 0.53, 127.63 5.26, 135.36 6.31 C143.08 7.36, 139.35 6.02, 138.92 7.19 M142.21 7.76 C154.25 10.99, 165.42 17.88, 174.09 25.76 C182.76 33.64, 190.51 44.74, 194.25 55.04 C197.99 65.34, 198.55 77.16, 196.53 87.58 C194.51 98.01, 189.21 109.01, 182.13 117.57 C175.04 126.13, 164.88 133.22, 154.01 138.94 C143.15 144.67, 130.29 149.86, 116.93 151.92 C103.57 153.98, 87.14 154.05, 73.88 151.32 C60.62 148.59, 47.92 142.06, 37.37 135.53 C26.82 129, 16.55 121.04, 10.58 112.13 C4.62 103.22, 2.53 92.33, 1.6 82.06 C0.66 71.8, 0.44 60.43, 4.99 50.55 C9.54 40.67, 19.31 30.28, 28.9 22.8 C38.48 15.32, 50.47 9.39, 62.5 5.69 C74.54 1.99, 88.01 0.15, 101.13 0.58 C114.25 1.01, 134.57 7.08, 141.25 8.29 C147.92 9.49, 141.9 6.74, 141.19 7.82" stroke="#000000" stroke-width="1" fill="none"></path></g><g transform="translate(1069.4000854492188 116.30000305175781) rotate(0 77 12.5)"><text x="77" y="18" font-family="Virgil, Segoe UI Emoji" font-size="20px" fill="#000000" text-anchor="middle" style="white-space: pre;" direction="ltr">CommandHandler</text></g><g stroke-linecap="round" transform="translate(1074.800048828125 215.59999084472656) rotate(0 85.199951171875 73.59999084472656)"><path d="M84.83 1.76 C116.05 28.33, 150.43 56.75, 169.72 74.31 M86.64 -0.37 C108.99 19.16, 129.9 38.84, 169.57 74.81 M168.75 75.25 C143.36 96.65, 115.27 121.48, 84.54 148.24 M169.64 73.82 C138.01 102.44, 105.55 131.46, 85.59 146.7 M84.8 147.16 C61.74 127.4, 39.84 110.43, 0.74 72.72 M86.92 147.72 C52.69 118.44, 20.45 90.8, -0.99 74.45 M1.14 73.77 C18.78 56.73, 36.96 42.38, 85.46 -1.61 M-0.51 73.54 C24.6 54.39, 48 34.83, 85.56 -0.71" stroke="#000000" stroke-width="1" fill="none"></path></g><g transform="translate(1085.9000244140625 273.5) rotate(0 72.5 12.5)"><text x="72.5" y="18" font-family="Virgil, Segoe UI Emoji" font-size="20px" fill="#000000" text-anchor="middle" style="white-space: pre;" direction="ltr">callToUseCase</text></g><g stroke-linecap="round" transform="translate(1023.5999755859375 10) rotate(0 124.800048828125 182.79999542236328)"><path d="M-1.63 1.31 C70.6 1.82, 142.29 -0.16, 248.06 0.91 M-0.78 0.6 C89.42 1.27, 177.14 1.35, 249.71 -0.79 M250.54 -0.55 C250.21 113.99, 250.96 226.66, 249.89 365.22 M250.1 -0.46 C250.15 105.12, 250.11 211.18, 249.67 365.15 M251.09 364.02 C190.12 365.49, 131.01 367.98, 0.36 365.86 M249.66 365.8 C171.73 365.06, 93.81 365.69, 0.4 365.29 M0.04 365.88 C1.59 282.14, 1.1 197.27, -1.1 -0.92 M-0.03 365.66 C1.06 230.95, 0.41 97.22, -0.32 -0.31" stroke="#000000" stroke-width="1" fill="none"></path></g></svg>